Coordinates
version=1
nRows=13
nColumns=22
inDegrees=yes

Units are S.I. units (second, meters, Newtons, ...)
If the header above contains a line with 'inDegrees', this indicates whether rotational values are in degrees (yes) or radians (no).

endheader
time	pelvis_tilt	pelvis_list	pelvis_rotation	pelvis_tx	pelvis_ty	pelvis_tz	hip_flexion_r	hip_adduction_r	hip_rotation_r	knee_angle_r	ankle_angle_r	subtalar_angle_r	hip_flexion_l	hip_adduction_l	hip_rotation_l	knee_angle_l	ankle_angle_l	subtalar_angle_l	lumbar_extension	lumbar_bending	lumbar_rotation
      6.13000000	     -2.36813426	     -2.83166883	    266.09320627	     -0.63564017	      0.92319366	      0.36252149	     14.12344473	     -5.65642461	      0.16747730	    -68.33556122	    -10.79411521	     13.04784734	      7.52368993	      5.36502460	    -18.45679000	    -20.94544367	      8.58919341	    -14.35214877	     -7.07520762	     -2.89078713	      5.98814699
      6.14000000	     -2.32319537	     -2.87979348	    267.69626069	     -0.63309601	      0.92361014	      0.36978671	     15.13192345	     -5.60980818	      0.07457717	    -68.05332392	     -9.62960902	     12.81346369	      6.78563895	      5.73160080	    -16.94084004	    -20.54640968	      8.68459683	    -14.31819512	     -7.12997648	     -2.81328982	      5.48903019
      6.15000000	     -2.28368751	     -2.94759138	    269.31310809	     -0.63053248	      0.92401395	      0.37690121	     16.06694547	     -5.55914015	     -0.01097458	    -67.55861134	     -8.43782946	     12.25217419	      6.02521771	      6.05316306	    -15.39988097	    -20.16325180	      8.79714942	    -14.26763382	     -7.21486132	     -2.73850114	      5.02262837
      6.16000000	     -2.24843923	     -2.98376013	    270.96341513	     -0.62791120	      0.92435191	      0.38386557	     16.98150562	     -5.50466446	     -0.08854945	    -66.85619432	     -7.37484030	     11.86051419	      5.29672040	      6.33545808	    -13.80129894	    -19.78375804	      8.86797253	    -14.22355140	     -7.26798005	     -2.66007120	      4.53595290
      6.17000000	     -2.21519761	     -3.05034888	    272.59714835	     -0.62532276	      0.92467232	      0.39071191	     17.80853133	     -5.43548598	     -0.13375708	    -65.96311948	     -6.26126339	     11.09995536	      4.54186831	      6.56672771	    -12.23430835	    -19.43478241	      8.99905759	    -14.15391593	     -7.35959901	     -2.58759601	      4.09354853
      6.18000000	     -2.18408286	     -3.10150900	    274.24413346	     -0.62271888	      0.92493536	      0.39742669	     18.59503898	     -5.35980113	     -0.16486285	    -64.88101858	     -5.27431680	     10.41351955	      3.81448652	      6.75861184	    -10.62382153	    -19.11236939	      9.11600893	    -14.08675490	     -7.43866752	     -2.51681468	      3.66090912
      6.19000000	     -2.15758038	     -3.13475264	    275.89494449	     -0.62008740	      0.92514411	      0.40403580	     19.33993225	     -5.27948496	     -0.18322336	    -63.61063016	     -4.41708756	      9.81340606	      3.11085742	      6.91196673	     -8.98468944	    -18.80362636	      9.21367077	    -14.02578780	     -7.49744916	     -2.43965810	      3.22606281
      6.20000000	     -2.11801228	     -3.19349853	    277.51963256	     -0.61751569	      0.92532164	      0.41056440	     19.99509479	     -5.19704942	     -0.17090371	    -62.17139832	     -3.52404723	      9.03511515	      2.39864843	      7.03020970	     -7.39162940	    -18.54426617	      9.38331571	    -13.94904200	     -7.59038880	     -2.38756954	      2.84340504
      6.21000000	     -2.08014338	     -3.23069635	    279.14619506	     -0.61490903	      0.92543595	      0.41699926	     20.61000252	     -5.11993183	     -0.15769095	    -60.55930220	     -2.76570981	      8.41193009	      1.71785273	      7.11792676	     -5.76941735	    -18.30152590	      9.52559451	    -13.89056399	     -7.65886802	     -2.33119908	      2.45613343
      6.22000000	     -2.03599849	     -3.26475075	    280.76639230	     -0.61229156	      0.92549985	      0.42335824	     21.16223476	     -5.05399967	     -0.14644495	    -58.78613040	     -2.08574518	      7.85615440	      1.05257009	      7.17882194	     -4.14185879	    -18.08747225	      9.67459005	    -13.84473575	     -7.72449165	     -2.28402578	      2.08501301
      6.23000000	     -1.98451172	     -3.28804740	    282.37519505	     -0.60965632	      0.92550050	      0.42963947	     21.65957483	     -5.00383570	     -0.13795858	    -56.85904401	     -1.48107020	      7.37303886	      0.40925591	      7.21787345	     -2.52209745	    -17.89586776	      9.82632929	    -13.81638869	     -7.78077191	     -2.24548209	      1.71873587
      6.24000000	     -1.92371940	     -3.30514859	    283.97432402	     -0.60699849	      0.92544329	      0.43584950	     22.09594744	     -4.97261788	     -0.14045088	    -54.78824944	     -0.96260288	      6.95343039	     -0.21758086	      7.23763306	     -0.91523119	    -17.72683021	      9.97537340	    -13.80672733	     -7.83284035	     -2.21849133	      1.35895151
      6.25000000	     -1.85214773	     -3.25548025	    285.56584611	     -0.60431352	      0.92521867	      0.44196115	     22.54818935	     -4.97927515	     -0.14084909	    -52.60794593	     -0.53510669	      6.76709713	     -0.75173841	      7.25908963	      0.66935956	    -17.60257437	     10.14878693	    -13.81666192	     -7.81573582	     -2.22057791	      0.98165515
